<svg width="742" height="110" viewBox="0 0 742 110" fill="none" xmlns="http://www.w3.org/2000/svg">
<mask id="path-1-outside-1_1_278" maskUnits="userSpaceOnUse" x="0" y="0" width="742" height="110" fill="black">
<rect fill="white" width="742" height="110"/>
<path d="M79.1863 108L59.8163 80.584L43.7243 108H6.02729L40.7443 53.615L4.53729 2.508H43.7243L62.3493 28.881L77.8453 2.508H115.542L81.4213 55.85L118.373 108H79.1863ZM197.592 82.968H229.478V108H164.514V2.508H197.592V82.968ZM311.705 28.881V41.844H344.485V66.727H311.705V81.627H348.955V108H278.627V2.508H348.955V28.881H311.705ZM506.398 2.508L470.936 108H428.173L392.711 2.508H427.875L449.629 75.071L471.234 2.508H506.398ZM585.621 28.881V41.844H618.401V66.727H585.621V81.627H622.871V108H552.543V2.508H622.871V28.881H585.621ZM707.155 82.968H739.041V108H674.077V2.508H707.155V82.968Z"/>
</mask>
<path d="M79.1863 108L77.5529 109.154L78.1505 110H79.1863V108ZM59.8163 80.584L61.4497 79.4299L59.6608 76.8979L58.0915 79.5716L59.8163 80.584ZM43.7243 108V110H44.8694L45.4491 109.012L43.7243 108ZM6.02729 108L4.34149 106.924L2.37782 110H6.02729V108ZM40.7443 53.615L42.4301 54.6911L43.1542 53.5569L42.3763 52.4588L40.7443 53.615ZM4.53729 2.508V0.507999H0.669335L2.90534 3.66417L4.53729 2.508ZM43.7243 2.508L45.358 1.35427L44.7603 0.507999H43.7243V2.508ZM62.3493 28.881L60.7156 30.0347L62.5035 32.5664L64.0737 29.8942L62.3493 28.881ZM77.8453 2.508V0.507999H76.7007L76.1209 1.49481L77.8453 2.508ZM115.542 2.508L117.227 3.5857L119.196 0.507999H115.542V2.508ZM81.4213 55.85L79.7365 54.7723L79.0106 55.9071L79.7894 57.0063L81.4213 55.85ZM118.373 108V110H122.242L120.005 106.844L118.373 108ZM80.8197 106.846L61.4497 79.4299L58.1829 81.7381L77.5529 109.154L80.8197 106.846ZM58.0915 79.5716L41.9995 106.988L45.4491 109.012L61.5411 81.5964L58.0915 79.5716ZM43.7243 106H6.02729V110H43.7243V106ZM7.71309 109.076L42.4301 54.6911L39.0585 52.5389L4.34149 106.924L7.71309 109.076ZM42.3763 52.4588L6.16925 1.35183L2.90534 3.66417L39.1123 54.7712L42.3763 52.4588ZM4.53729 4.508H43.7243V0.507999H4.53729V4.508ZM42.0906 3.66173L60.7156 30.0347L63.983 27.7273L45.358 1.35427L42.0906 3.66173ZM64.0737 29.8942L79.5697 3.52119L76.1209 1.49481L60.6249 27.8678L64.0737 29.8942ZM77.8453 4.508H115.542V0.507999H77.8453V4.508ZM113.858 1.43029L79.7365 54.7723L83.1061 56.9277L117.227 3.5857L113.858 1.43029ZM79.7894 57.0063L116.741 109.156L120.005 106.844L83.0532 54.6937L79.7894 57.0063ZM118.373 106H79.1863V110H118.373V106ZM197.592 82.968H195.592V84.968H197.592V82.968ZM229.478 82.968H231.478V80.968H229.478V82.968ZM229.478 108V110H231.478V108H229.478ZM164.514 108H162.514V110H164.514V108ZM164.514 2.508V0.507999H162.514V2.508H164.514ZM197.592 2.508H199.592V0.507999H197.592V2.508ZM197.592 84.968H229.478V80.968H197.592V84.968ZM227.478 82.968V108H231.478V82.968H227.478ZM229.478 106H164.514V110H229.478V106ZM166.514 108V2.508H162.514V108H166.514ZM164.514 4.508H197.592V0.507999H164.514V4.508ZM195.592 2.508V82.968H199.592V2.508H195.592ZM311.705 28.881V26.881H309.705V28.881H311.705ZM311.705 41.844H309.705V43.844H311.705V41.844ZM344.485 41.844H346.485V39.844H344.485V41.844ZM344.485 66.727V68.727H346.485V66.727H344.485ZM311.705 66.727V64.727H309.705V66.727H311.705ZM311.705 81.627H309.705V83.627H311.705V81.627ZM348.955 81.627H350.955V79.627H348.955V81.627ZM348.955 108V110H350.955V108H348.955ZM278.627 108H276.627V110H278.627V108ZM278.627 2.508V0.507999H276.627V2.508H278.627ZM348.955 2.508H350.955V0.507999H348.955V2.508ZM348.955 28.881V30.881H350.955V28.881H348.955ZM309.705 28.881V41.844H313.705V28.881H309.705ZM311.705 43.844H344.485V39.844H311.705V43.844ZM342.485 41.844V66.727H346.485V41.844H342.485ZM344.485 64.727H311.705V68.727H344.485V64.727ZM309.705 66.727V81.627H313.705V66.727H309.705ZM311.705 83.627H348.955V79.627H311.705V83.627ZM346.955 81.627V108H350.955V81.627H346.955ZM348.955 106H278.627V110H348.955V106ZM280.627 108V2.508H276.627V108H280.627ZM278.627 4.508H348.955V0.507999H278.627V4.508ZM346.955 2.508V28.881H350.955V2.508H346.955ZM348.955 26.881H311.705V30.881H348.955V26.881ZM506.398 2.508L508.294 3.14527L509.181 0.507999H506.398V2.508ZM470.936 108V110H472.374L472.832 108.637L470.936 108ZM428.173 108L426.278 108.637L426.736 110H428.173V108ZM392.711 2.508V0.507999H389.929L390.816 3.14527L392.711 2.508ZM427.875 2.508L429.791 1.93367L429.364 0.507999H427.875V2.508ZM449.629 75.071L447.714 75.6453L449.636 82.0575L451.546 75.6417L449.629 75.071ZM471.234 2.508V0.507999H469.743L469.318 1.93728L471.234 2.508ZM504.503 1.87073L469.041 107.363L472.832 108.637L508.294 3.14527L504.503 1.87073ZM470.936 106H428.173V110H470.936V106ZM430.069 107.363L394.607 1.87073L390.816 3.14527L426.278 108.637L430.069 107.363ZM392.711 4.508H427.875V0.507999H392.711V4.508ZM425.96 3.08233L447.714 75.6453L451.545 74.4967L429.791 1.93367L425.96 3.08233ZM451.546 75.6417L473.151 3.07872L469.318 1.93728L447.713 74.5003L451.546 75.6417ZM471.234 4.508H506.398V0.507999H471.234V4.508ZM585.621 28.881V26.881H583.621V28.881H585.621ZM585.621 41.844H583.621V43.844H585.621V41.844ZM618.401 41.844H620.401V39.844H618.401V41.844ZM618.401 66.727V68.727H620.401V66.727H618.401ZM585.621 66.727V64.727H583.621V66.727H585.621ZM585.621 81.627H583.621V83.627H585.621V81.627ZM622.871 81.627H624.871V79.627H622.871V81.627ZM622.871 108V110H624.871V108H622.871ZM552.543 108H550.543V110H552.543V108ZM552.543 2.508V0.507999H550.543V2.508H552.543ZM622.871 2.508H624.871V0.507999H622.871V2.508ZM622.871 28.881V30.881H624.871V28.881H622.871ZM583.621 28.881V41.844H587.621V28.881H583.621ZM585.621 43.844H618.401V39.844H585.621V43.844ZM616.401 41.844V66.727H620.401V41.844H616.401ZM618.401 64.727H585.621V68.727H618.401V64.727ZM583.621 66.727V81.627H587.621V66.727H583.621ZM585.621 83.627H622.871V79.627H585.621V83.627ZM620.871 81.627V108H624.871V81.627H620.871ZM622.871 106H552.543V110H622.871V106ZM554.543 108V2.508H550.543V108H554.543ZM552.543 4.508H622.871V0.507999H552.543V4.508ZM620.871 2.508V28.881H624.871V2.508H620.871ZM622.871 26.881H585.621V30.881H622.871V26.881ZM707.155 82.968H705.155V84.968H707.155V82.968ZM739.041 82.968H741.041V80.968H739.041V82.968ZM739.041 108V110H741.041V108H739.041ZM674.077 108H672.077V110H674.077V108ZM674.077 2.508V0.507999H672.077V2.508H674.077ZM707.155 2.508H709.155V0.507999H707.155V2.508ZM707.155 84.968H739.041V80.968H707.155V84.968ZM737.041 82.968V108H741.041V82.968H737.041ZM739.041 106H674.077V110H739.041V106ZM676.077 108V2.508H672.077V108H676.077ZM674.077 4.508H707.155V0.507999H674.077V4.508ZM705.155 2.508V82.968H709.155V2.508H705.155Z" fill="white" mask="url(#path-1-outside-1_1_278)"/>
</svg>
